<?xml version="1.0" encoding="UTF-8"?>
<svg id="Layer_1" xmlns="http://www.w3.org/2000/svg" version="1.1" viewBox="0 0 636.2 591.6">
  <g id="Sceen">
    <path d="M17.7,521.1h600.8v22.8c-200.2,0-400.5-.1-600.7-.3v-22.4M17.7,498.1c-4.6,0-9.1,2.5-12.4,6.8S.1,515.1.1,521.1v22.4c0,12.7,7.9,23,17.6,23h300.4c0,.1,300.4.3,300.4.3h0c9.7,0,17.5-10.2,17.6-22.8v-22.8c0-6.1-1.6-12-4.9-16.4-3.3-4.3-7.8-6.8-12.5-6.8H17.6h.1Z"/>
    <path d="M17.4,47.8h600.8v22.8c-200.2,0-400.5,0-600.7-.3v-22.4M17.4,24.9c-4.6,0-9.1,2.5-12.4,6.8S-.2,41.8-.2,47.8v22.4c0,12.7,7.9,23,17.6,23l600.7.3h0c9.7,0,17.5-10.2,17.6-22.8v-22.8c0-6.1-1.6-12-4.9-16.4s-7.8-6.8-12.5-6.8H17.4Z"/>
    <rect x="589" y="82.1" width="16" height="427.5"/>
    <rect x="32.4" y="75.3" width="16" height="434.3"/>
  </g>
  <g id="plus">
    <rect x="307.1" y="136.9" width="22.8" height="319.9" rx="10.9" ry="10.9"/>
    <rect x="158.5" y="286.1" width="319.9" height="22.8" rx="10.9" ry="10.9"/>
  </g>
</svg>