<svg xmlns="http://www.w3.org/2000/svg" width="24" height="24" fill="none" stroke="currentColor" stroke-width="2" stroke-linecap="round" stroke-linejoin="round" class="lucide lucide-projector"><path d="M8.695 2.057a1.04 1.04 0 0 0-.567.459L8.02 2.7v3.606l.121.197a.998.998 0 0 0 1.718 0l.121-.197V2.7l-.108-.184a1.005 1.005 0 0 0-1.177-.459M2.67 4.061c-.222.081-.42.248-.542.455-.092.156-.108.229-.107.484 0 .213.022.341.074.44.099.187 2.199 2.299 2.413 2.426.46.272 1.079.102 1.359-.374.097-.165.113-.235.113-.492 0-.253-.017-.328-.107-.48-.058-.099-.607-.677-1.22-1.284-.973-.965-1.138-1.112-1.31-1.17a1.003 1.003 0 0 0-.673-.005m11.97.008c-.148.052-.375.256-1.293 1.167-.613.607-1.162 1.185-1.22 1.284-.09.152-.107.227-.107.48 0 .257.016.327.113.492.28.476.899.646 1.359.374.214-.127 2.314-2.239 2.413-2.426.052-.099.074-.227.074-.44.001-.255-.015-.328-.107-.484a1.014 1.014 0 0 0-1.232-.447M8.358 9.061a4.01 4.01 0 0 0-1.796.782c-.332.25-.777.73-.93 1.002l-.082.147-1.045.018c-.967.015-1.069.024-1.366.115a3.073 3.073 0 0 0-2.025 2.035l-.094.3v5.08l.094.3a3.086 3.086 0 0 0 2.046 2.046l.3.094h17.08l.3-.094a3.086 3.086 0 0 0 2.046-2.046l.094-.3v-5.08l-.094-.3a3.091 3.091 0 0 0-2.025-2.039l-.321-.101-4.043-.011-4.044-.012-.084-.149c-.154-.275-.598-.754-.931-1.005a3.945 3.945 0 0 0-1.833-.785 3.728 3.728 0 0 0-1.247.003m1.12 2.001c1.211.276 1.864 1.678 1.314 2.818-.153.317-.564.744-.862.895a1.976 1.976 0 0 1-2.277-.31 1.975 1.975 0 0 1-.113-2.817c.504-.543 1.201-.753 1.938-.586M5 13.184c0 .282.151.96.289 1.295a3.978 3.978 0 0 0 2.223 2.225 3.988 3.988 0 0 0 5.192-2.216c.15-.373.296-1.015.296-1.304V13h3.553c4.024 0 3.826-.014 4.144.303.305.306.303.286.303 2.698 0 2.286-.004 2.332-.221 2.617-.061.08-.194.195-.295.254l-.184.108H3.7l-.184-.108a1.199 1.199 0 0 1-.291-.249C3 18.327 3 18.332 3 16.022c0-2.436-.003-2.413.304-2.719.25-.251.423-.297 1.126-.3L5 13v.184m10.695 1.873a1.04 1.04 0 0 0-.567.459c-.091.156-.108.23-.108.484 0 .256.016.328.111.489.125.213.318.375.539.454.215.077 2.445.077 2.66 0 .221-.079.414-.241.539-.454.095-.161.111-.233.111-.489 0-.254-.017-.328-.108-.484a1.02 1.02 0 0 0-.582-.461c-.251-.076-2.353-.074-2.595.002" fill-rule="evenodd" fill="#000" stroke="none"/></svg>