<?xml version="1.0" encoding="UTF-8"?>
<svg id="Layer_1" xmlns="http://www.w3.org/2000/svg" version="1.1" viewBox="0 0 636.2 591.6">
  <!-- Generator: Adobe Illustrator 29.2.1, SVG Export Plug-In . SVG Version: 2.1.0 Build 116)  -->
  <defs>
    <style>
      .st0 {
        stroke: #15181f;
        stroke-miterlimit: 10;
        stroke-width: 16px;
      }

      .st0, .st1 {
        fill-opacity: 0;
      }

      .st2 {
        fill: #15181f;
      }
    </style>
  </defs>
  <g id="Sceen">
    <g>
      <path class="st1" d="M17.7,488.5c-4.8,0-8.8-4-8.8-8.8v-17.1c0-2.3.9-4.6,2.5-6.3s3.8-2.5,6.3-2.5h600.8c2.3,0,4.6,1,6.3,2.6,1.6,1.6,2.5,4,2.5,6.3v17.4c-.2,4.8-4.2,8.7-8.9,8.7s-600.7-.2-600.7-.2h0Z"/>
      <path class="st2" d="M17.7,462.6h600.8v17.4c-200.2,0-400.5-.1-600.7-.2v-17.1M17.7,445c-4.6,0-9.1,1.9-12.4,5.2S.1,458,.1,462.6v17.1c0,9.7,7.9,17.6,17.6,17.6h300.4c0,.1,300.4.2,300.4.2h0c9.7,0,17.5-7.8,17.6-17.4v-17.4c0-4.7-1.6-9.2-4.9-12.5s-7.8-5.2-12.5-5.2H17.6h.1Z"/>
    </g>
    <g>
      <path class="st1" d="M17.4,126.7c-4.8,0-8.8-4-8.8-8.8v-17.1c0-2.3.9-4.6,2.5-6.3s3.8-2.5,6.3-2.5h600.8c2.3,0,4.6,1,6.3,2.6s2.5,4,2.5,6.3v17.4c-.2,4.8-4.2,8.7-8.9,8.7s-600.7-.2-600.7-.2h0Z"/>
      <path class="st2" d="M17.4,100.8h600.8v17.4c-200.2,0-400.5,0-600.7-.2v-17.1M17.4,83.3c-4.6,0-9.1,1.9-12.4,5.2S-.2,96.2-.2,100.8v17.1c0,9.7,7.9,17.6,17.6,17.6l600.7.2h0c9.7,0,17.5-7.8,17.6-17.4v-17.4c0-4.7-1.6-9.2-4.9-12.5s-7.8-5.2-12.5-5.2H17.4Z"/>
    </g>
    <rect class="st0" x="40.4" y="126.9" width="556.6" height="326.9"/>
  </g>
  <g id="Decoration">
    <ellipse class="st2" cx="413.9" cy="157.3" rx="6.5" ry="6.7"/>
    <ellipse class="st2" cx="568.1" cy="279.4" rx="6.5" ry="6.7"/>
    <ellipse class="st2" cx="130" cy="157.3" rx="6.5" ry="6.7"/>
    <ellipse class="st2" cx="68.1" cy="351.4" rx="6.5" ry="6.7"/>
    <ellipse class="st2" cx="68.1" cy="329.6" rx="6.5" ry="6.7"/>
    <rect class="st2" x="372.1" y="151.3" width="19.9" height="11.9" rx="5.2" ry="5.2"/>
    <rect class="st2" x="440.7" y="151.3" width="54.6" height="11.9" rx="5.2" ry="5.2"/>
    <rect class="st2" x="562.2" y="293.1" width="11.5" height="56.4" rx="5.2" ry="5.2"/>
    <rect class="st2" x="141" y="419.4" width="54.6" height="11.9" rx="5.2" ry="5.2"/>
    <rect class="st2" x="62.7" y="218.6" width="11.5" height="24.2" rx="5.2" ry="5.2"/>
    <rect class="st2" x="62.7" y="253.1" width="11.5" height="24.2" rx="5.2" ry="5.2"/>
    <path class="st2" d="M516.9,151.8h50.6c3.4,0,6.3,2.7,6.3,6.3v5.6h-56.9c-3.2,0-5.7-2.5-5.7-5.7v-.3c0-3.2,2.5-5.7,5.7-5.7h0v-.2Z"/>
    <path class="st2" d="M562.3,215.6v-63.9h5.3c3.4,0,6.3,2.7,6.3,6.3v57.7c0,3.2-2.5,5.7-5.7,5.7h0c-3.2,0-5.7-2.5-5.7-5.7h-.2Z"/>
    <path class="st2" d="M573.4,380.8v44.6c0,3.4-2.7,6.3-6.3,6.3h-5.3v-50.8c0-3.2,2.5-5.7,5.7-5.7h0c3.2,0,5.7,2.5,5.7,5.7h.2Z"/>
    <path class="st2" d="M539.4,419.9h34v5.6c0,3.4-2.7,6.3-6.3,6.3h-27.8c-3.2,0-5.7-2.5-5.7-5.7v-.3c0-3.2,2.5-5.7,5.7-5.7h0v-.2Z"/>
    <path class="st2" d="M127.3,431.3h-58.4c-3.4,0-6.3-2.7-6.3-6.3v-5.6h64.7c3.2,0,5.7,2.5,5.7,5.7v.3c0,3.2-2.5,5.7-5.7,5.7h0v.2Z"/>
    <path class="st2" d="M74.1,372.3v58.5h-5.3c-3.4,0-6.3-2.7-6.3-6.3v-52.3c0-3.2,2.5-5.7,5.7-5.7h0c3.2,0,5.7,2.5,5.7,5.7h.2Z"/>
    <path class="st2" d="M62.7,201.9v-44.6c0-3.4,2.7-6.3,6.3-6.3h5.3v50.8c0,3.2-2.5,5.7-5.7,5.7h0c-3.2,0-5.7-2.5-5.7-5.7h-.2Z"/>
    <path class="st2" d="M96.8,162.8h-34v-5.6c0-3.4,2.7-6.3,6.3-6.3h27.8c3.2,0,5.7,2.5,5.7,5.7v.3c0,3.2-2.5,5.7-5.7,5.7h0v.2Z"/>
  </g>
  <g id="demotiome">
    <path class="st2" d="M165.1,395.7l44.1-210.9h57c10,0,18.6,1.6,26.4,4.6s13.9,7.8,18.8,14.3,7.8,14.5,9.1,24.2.8,21.2-2.2,34.7l-13.7,65.7c-3.2,15.6-8.6,28.6-15.6,38.4-7,10-16.1,17.5-27.5,22.1-11,4.8-24.5,7-40.1,7h-57,.7ZM223,356.7l-2.2-2.6h11.3c3.7,0,7.2-.8,10-2.2s5.2-4.1,7.2-8c2.1-4,3.7-9.4,5.4-16.7l15.6-73.1c1.3-5.9,1.9-10.8,1.6-14.8,0-4.1-1.3-7.2-3.5-9.4s-5.6-3.2-10.2-3.2h-11.9l4.6-3.7-28.6,134h.5l.2-.3Z"/>
    <path class="st2" d="M359.8,396l35.5-168.7h-30.4l8.9-42.3h111.4l-8.9,42.3h-30.6l-35.5,168.7h-50.4Z"/>
  </g>
</svg>