<?xml version="1.0" encoding="UTF-8"?>
<svg id="Layer_1" xmlns="http://www.w3.org/2000/svg" version="1.1" viewBox="0 0 636.2 591.6">
  <!-- Generator: Adobe Illustrator 29.2.1, SVG Export Plug-In . SVG Version: 2.1.0 Build 116)  -->
  <defs>
    <style>
      .st0 {
        fill: #15181f;
      }

      .st1 {
        fill: #15181f;
      }
    </style>
  </defs>
  <g id="Sceen">
    <g>
      <path class="st0" d="M17.7,462.6h600.8v17.4c-200.2,0-400.5-.1-600.7-.2v-17.1M17.7,445c-4.6,0-9.1,1.9-12.4,5.2S.1,458,.1,462.6v17.1c0,9.7,7.9,17.6,17.6,17.6h300.4c0,.1,300.4.2,300.4.2h0c9.7,0,17.5-7.8,17.6-17.4v-17.4c0-4.7-1.6-9.2-4.9-12.5s-7.8-5.2-12.5-5.2H17.6h.1Z"/>
    </g>
    <g>
      <path class="st0" d="M17.4,100.8h600.8v17.4c-200.2,0-400.5,0-600.7-.2v-17.1M17.4,83.3c-4.6,0-9.1,1.9-12.4,5.2S-.2,96.2-.2,100.8v17.1c0,9.7,7.9,17.6,17.6,17.6l600.7.2h0c9.7,0,17.5-7.8,17.6-17.4v-17.4c0-4.7-1.6-9.2-4.9-12.5s-7.8-5.2-12.5-5.2H17.4Z"/>
    </g>
    <rect class="st1" x="589" y="127" width="16" height="326.8"/>
    <rect class="st1" x="32.4" y="121.8" width="16" height="332"/>
  </g>
  <g id="Decoration">
    <ellipse class="st0" cx="413.9" cy="148.8" rx="6.5" ry="7"/>
    <ellipse class="st0" cx="568.1" cy="276.9" rx="6.5" ry="7"/>
    <ellipse class="st0" cx="130" cy="148.8" rx="6.5" ry="7"/>
    <ellipse class="st0" cx="68.1" cy="352.5" rx="6.5" ry="7"/>
    <ellipse class="st0" cx="68.1" cy="329.6" rx="6.5" ry="7"/>
    <rect class="st0" x="372.1" y="142.5" width="19.9" height="12.5" rx="5.2" ry="5.2"/>
    <rect class="st0" x="440.7" y="142.5" width="54.6" height="12.5" rx="5.2" ry="5.2"/>
    <rect class="st0" x="562.2" y="291.3" width="11.5" height="59.2" rx="5.2" ry="5.2"/>
    <rect class="st0" x="141" y="423.9" width="54.6" height="12.5" rx="5.2" ry="5.2"/>
    <rect class="st0" x="62.7" y="213.1" width="11.5" height="25.4" rx="5.2" ry="5.2"/>
    <rect class="st0" x="62.7" y="249.3" width="11.5" height="25.4" rx="5.2" ry="5.2"/>
    <path class="st0" d="M516.9,143h50.6c3.4,0,6.3,2.8,6.3,6.6v5.9h-56.9c-3.2,0-5.7-2.6-5.7-6v-.3c0-3.4,2.5-6,5.7-6h0v-.2h0Z"/>
    <path class="st0" d="M562.3,210v-67.1h5.3c3.4,0,6.3,2.8,6.3,6.6v60.6c0,3.4-2.5,6-5.7,6h0c-3.2,0-5.7-2.6-5.7-6h-.2,0Z"/>
    <path class="st0" d="M573.4,383.4v46.8c0,3.6-2.7,6.6-6.3,6.6h-5.3v-53.3c0-3.4,2.5-6,5.7-6h0c3.2,0,5.7,2.6,5.7,6h.2,0Z"/>
    <path class="st0" d="M539.4,424.4h34v5.9c0,3.6-2.7,6.6-6.3,6.6h-27.8c-3.2,0-5.7-2.6-5.7-6v-.3c0-3.4,2.5-6,5.7-6h0v-.2h0Z"/>
    <path class="st0" d="M127.3,436.4h-58.4c-3.4,0-6.3-2.8-6.3-6.6v-5.9h64.7c3.2,0,5.7,2.6,5.7,6v.3c0,3.4-2.5,6-5.7,6h0v.2Z"/>
    <path class="st0" d="M74.1,374.5v61.4h-5.3c-3.4,0-6.3-2.8-6.3-6.6v-54.9c0-3.4,2.5-6,5.7-6h0c3.2,0,5.7,2.6,5.7,6h.2Z"/>
    <path class="st0" d="M62.7,195.6v-46.8c0-3.6,2.7-6.6,6.3-6.6h5.3v53.3c0,3.4-2.5,6-5.7,6h0c-3.2,0-5.7-2.6-5.7-6h-.2Z"/>
    <path class="st0" d="M96.8,154.6h-34v-5.9c0-3.6,2.7-6.6,6.3-6.6h27.8c3.2,0,5.7,2.6,5.7,6v.3c0,3.4-2.5,6-5.7,6h0v.2h-.1Z"/>
  </g>
  <g id="demotiome">
    <path class="st0" d="M135.1,405.6l50.6-229.9h65.5c11.5,0,21.4,1.7,30.3,5s16,8.5,21.6,15.6,9,15.8,10.5,26.4c1.5,10.6.9,23.1-2.5,37.8l-15.7,71.6c-3.7,17-9.9,31.2-17.9,41.9-8,10.9-18.5,19.1-31.6,24.1-12.6,5.2-28.1,7.6-46.1,7.6h-65.5.8ZM201.6,363.1l-2.5-2.8h13c4.2,0,8.3-.9,11.5-2.4s6-4.5,8.3-8.7c2.4-4.4,4.2-10.2,6.2-18.2l17.9-79.7c1.5-6.4,2.2-11.8,1.8-16.1,0-4.5-1.5-7.9-4-10.2s-6.4-3.5-11.7-3.5h-13.7l5.3-4-32.8,146.1h.6l.2-.3v-.2Z"/>
    <path class="st0" d="M358.7,405.9l40.8-183.9h-34.9l10.2-46.1h127.9l-10.2,46.1h-35.1l-40.8,183.9h-57.9Z"/>
  </g>
</svg>