<?xml version="1.0" encoding="utf-8"?>
<!-- Generator: Adobe Illustrator 28.0.0, SVG Export Plug-In . SVG Version: 6.00 Build 0)  -->
<svg version="1.1" id="Layer_1" xmlns="http://www.w3.org/2000/svg" xmlns:xlink="http://www.w3.org/1999/xlink" x="0px" y="0px"
	 viewBox="0 0 128 128" style="enable-background:new 0 0 128 128;" xml:space="preserve">
<style type="text/css">
	.st0{fill:#FFD23F;}
	.st1{fill:none;stroke:#0D1321;stroke-width:10;}
	.st2{fill:#0D1321;}
</style>
<circle class="st0" cx="64" cy="64" r="54"/>
<circle class="st1" cx="64" cy="64" r="54"/>
<g>
	<g>
		<path class="st2" d="M24.6,57.8l2.9-16h7.2c1.8,0,3.4,0.3,4.7,0.9c1.3,0.6,2.2,1.4,2.8,2.5s0.9,2.4,0.9,3.8v0.2
			c0,1.7-0.4,3.2-1.2,4.5s-2,2.3-3.4,3c-1.5,0.7-3.1,1.1-5,1.1H24.6z M30.6,53.8h2.9c0.7,0,1.2-0.1,1.8-0.3c0.5-0.2,1-0.5,1.3-0.9
			s0.6-1,0.7-1.7l0.3-1.7c0.1-0.9,0.1-1.5-0.2-2c-0.2-0.5-0.6-0.9-1.2-1.1c-0.6-0.2-1.2-0.3-2-0.3H32L30.6,53.8z"/>
		<path class="st2" d="M43.7,57.8l2.9-16H61l-0.7,4h-9.2l-0.4,2.1h7.8l-0.6,3.8h-7.8l-0.4,2.2h9.2l-0.7,4L43.7,57.8L43.7,57.8z"/>
		<path class="st2" d="M60.4,57.8l2.9-16h8l0.6,9.8H72l4.1-9.8h8.1l-2.9,16h-5l1.8-10.4l0.2-1.1h-0.2l-0.5,1l-4.5,10.5h-4.8
			l-0.8-10.4l-0.1-1.1h-0.2L67,47.4l-1.8,10.3L60.4,57.8L60.4,57.8z"/>
		<path class="st2" d="M93.8,58c-1.8,0-3.3-0.3-4.6-1c-1.3-0.7-2.3-1.6-3.1-2.7c-0.7-1.2-1.1-2.5-1.1-4.1V50c0-1.3,0.2-2.4,0.6-3.5
			c0.4-1,1-1.9,1.8-2.7c0.8-0.7,1.8-1.3,3-1.7s2.6-0.6,4.1-0.6c1.8,0,3.3,0.3,4.6,1c1.3,0.7,2.3,1.6,3.1,2.7
			c0.7,1.2,1.1,2.5,1.1,4.1v0.2c0,1.3-0.2,2.4-0.6,3.5s-1,1.9-1.8,2.7c-0.8,0.7-1.8,1.3-3,1.7C96.7,57.8,95.3,58,93.8,58z
			 M93.9,53.9c0.8,0,1.5-0.1,2-0.3s0.9-0.5,1.2-0.9s0.5-0.8,0.5-1.3l0.4-2.1c0.1-0.5,0.1-1,0-1.5c-0.1-0.4-0.3-0.8-0.6-1.1
			c-0.3-0.3-0.7-0.6-1.2-0.7c-0.5-0.2-1-0.3-1.7-0.3c-0.8,0-1.5,0.1-2,0.3s-0.9,0.5-1.2,0.9s-0.5,0.8-0.5,1.3l-0.4,2.1
			c-0.1,0.5-0.1,1,0,1.5s0.3,0.8,0.6,1.1c0.3,0.3,0.7,0.6,1.2,0.7C92.7,53.8,93.3,53.9,93.9,53.9z"/>
		<path class="st2" d="M44.7,72.2H29.4l0.8-4h15.2L44.7,72.2z M34.5,71.8h5.2l-2.2,12.3h-5.2L34.5,71.8z"/>
		<path class="st2" d="M44.4,84.2l2.9-16h5.2l-2.8,16H44.4z"/>
		<path class="st2" d="M52.4,84.2l2.9-16h8l0.6,9.8H64l4.1-9.8h8.1l-2.9,16h-5l1.8-10.4l0.2-1.1h-0.2l-0.5,1l-4.5,10.5h-4.8
			l-0.8-10.4l-0.1-1.1h-0.2L59,73.8l-1.8,10.3L52.4,84.2L52.4,84.2z"/>
		<path class="st2" d="M76.2,84.2l2.9-16h14.5l-0.7,4h-9.2l-0.4,2.1h7.8L90.4,78h-7.8l-0.4,2.2h9.2l-0.7,4H76.2z"/>
		<path class="st2" d="M93.1,84.2l0.6-3.7H98l-0.6,3.7H93.1z M95,79l-0.2-5.5l0.9-5.4h4.7l-0.9,5.4L97.3,79H95z"/>
	</g>
</g>
</svg>
