<?xml version="1.0" encoding="UTF-8"?>
<svg id="Layer_1" xmlns="http://www.w3.org/2000/svg" version="1.1" viewBox="0 0 636.2 591.6">
  <!-- Generator: Adobe Illustrator 29.2.1, SVG Export Plug-In . SVG Version: 2.1.0 Build 116)  -->
  <defs>
    <style>
      .st0 {
        fill: #15181f;
      }

      .st1 {
        stroke: #15181f;
        stroke-miterlimit: 10;
        stroke-width: 16px;
      }

      .st1, .st2 {
        fill: #fff;
      }

      .st3 {
        fill: #ffd43b;
      }
    </style>
  </defs>
  <g id="Background">
    <path class="st3" d="M161,569.6"/>
    <ellipse class="st3" cx="318.1" cy="295.8" rx="318.1" ry="295.8"/>
  </g>
  <g id="Sceen">
    <g>
      <path class="st2" d="M17.8,490.7c-4.8,0-8.8-4-8.8-8.8v-17.1c0-2.3.9-4.6,2.5-6.3s3.8-2.5,6.3-2.5h600.5c2.3,0,4.6,1,6.3,2.6s2.5,4,2.5,6.3v17.3c-.2,4.8-4.2,8.7-8.9,8.7s-600.4-.2-600.4-.2h0Z"/>
      <path class="st0" d="M17.8,464.8h600.5v17.3c-200.1,0-400.3-.1-600.4-.2v-17.1M17.8,447.3c-4.6,0-9.1,1.9-12.4,5.2s-5.2,7.8-5.2,12.4v17.1c0,9.7,7.9,17.6,17.6,17.6h300.2c0,.1,300.2.2,300.2.2h0c9.7,0,17.5-7.8,17.6-17.3v-17.3c0-4.7-1.6-9.2-4.9-12.5s-7.8-5.2-12.5-5.2H17.7h.1Z"/>
    </g>
    <g>
      <path class="st2" d="M17.5,129.2c-4.8,0-8.8-4-8.8-8.8v-17.1c0-2.3.9-4.6,2.5-6.3s3.8-2.5,6.3-2.5h600.5c2.3,0,4.6,1,6.3,2.6s2.5,4,2.5,6.3v17.3c-.2,4.8-4.2,8.7-8.9,8.7s-600.4-.2-600.4-.2h0Z"/>
      <path class="st0" d="M17.5,103.3h600.5v17.3c-200.1,0-400.3,0-600.4-.2v-17.1M17.5,85.7c-4.6,0-9.1,1.9-12.4,5.2S0,98.7,0,103.3v17.1c0,9.7,7.9,17.6,17.6,17.6l600.4.2h0c9.7,0,17.5-7.8,17.6-17.3v-17.3c0-4.7-1.6-9.2-4.9-12.5s-7.8-5.2-12.5-5.2H17.5Z"/>
    </g>
    <rect class="st1" x="40.4" y="139.7" width="556.2" height="306.1"/>
  </g>
  <g id="Decoration">
    <ellipse class="st0" cx="413.7" cy="159.7" rx="6.5" ry="6.7"/>
    <ellipse class="st0" cx="567.8" cy="281.7" rx="6.5" ry="6.7"/>
    <ellipse class="st0" cx="130" cy="159.7" rx="6.5" ry="6.7"/>
    <ellipse class="st0" cx="68.2" cy="353.7" rx="6.5" ry="6.7"/>
    <ellipse class="st0" cx="68.2" cy="331.9" rx="6.5" ry="6.7"/>
    <rect class="st0" x="372" y="153.8" width="19.9" height="11.9" rx="5.2" ry="5.2"/>
    <rect class="st0" x="440.5" y="153.8" width="54.5" height="11.9" rx="5.2" ry="5.2"/>
    <rect class="st0" x="562" y="295.5" width="11.5" height="56.4" rx="5.2" ry="5.2"/>
    <rect class="st0" x="141" y="421.7" width="54.5" height="11.9" rx="5.2" ry="5.2"/>
    <rect class="st0" x="62.7" y="220.9" width="11.5" height="24.1" rx="5.2" ry="5.2"/>
    <rect class="st0" x="62.7" y="255.5" width="11.5" height="24.1" rx="5.2" ry="5.2"/>
    <path class="st0" d="M516.7,154.2h50.6c3.4,0,6.3,2.7,6.3,6.3v5.6h-56.9c-3.2,0-5.7-2.5-5.7-5.7v-.3c0-3.2,2.5-5.7,5.7-5.7h0Z"/>
    <path class="st0" d="M562.1,218v-63.9h5.3c3.4,0,6.3,2.7,6.3,6.3v57.6c0,3.2-2.5,5.7-5.7,5.7h0c-3.2,0-5.7-2.5-5.7-5.7h-.1Z"/>
    <path class="st0" d="M573.2,383v44.6c0,3.4-2.7,6.3-6.3,6.3h-5.3v-50.8c0-3.2,2.5-5.7,5.7-5.7h0c3.2,0,5.7,2.5,5.7,5.7h.1Z"/>
    <path class="st0" d="M539.2,422.1h34v5.6c0,3.4-2.7,6.3-6.3,6.3h-27.8c-3.2,0-5.7-2.5-5.7-5.7v-.3c0-3.2,2.5-5.7,5.7-5.7h0Z"/>
    <path class="st0" d="M127.3,433.5h-58.4c-3.4,0-6.3-2.7-6.3-6.3v-5.6h64.6c3.2,0,5.7,2.5,5.7,5.7v.3c0,3.2-2.5,5.7-5.7,5.7h0Z"/>
    <path class="st0" d="M74.1,374.6v58.5h-5.3c-3.4,0-6.3-2.7-6.3-6.3v-52.2c0-3.2,2.5-5.7,5.7-5.7h0c3.2,0,5.7,2.5,5.7,5.7h.1Z"/>
    <path class="st0" d="M62.7,204.3v-44.6c0-3.4,2.7-6.3,6.3-6.3h5.3v50.8c0,3.2-2.5,5.7-5.7,5.7h0c-3.2,0-5.7-2.5-5.7-5.7h-.1Z"/>
    <path class="st0" d="M96.8,165.2h-34v-5.6c0-3.4,2.7-6.3,6.3-6.3h27.8c3.2,0,5.7,2.5,5.7,5.7v.3c0,3.2-2.5,5.7-5.7,5.7h0Z"/>
  </g>
  <g id="demotiome">
    <path class="st0" d="M165.1,398l44.1-210.7h57c10,0,18.5,1.6,26.3,4.6s13.9,7.8,18.8,14.3c4.8,6.5,7.8,14.5,9.1,24.1s.8,21.2-2.2,34.7l-13.7,65.6c-3.2,15.6-8.6,28.5-15.6,38.4-7,10-16.1,17.5-27.4,22.1-11,4.8-24.5,7-40.1,7h-57,.7ZM222.9,359l-2.2-2.6h11.3c3.7,0,7.2-.8,10-2.2s5.2-4.1,7.2-8,3.7-9.4,5.4-16.7l15.6-73.1c1.3-5.9,1.9-10.8,1.6-14.8,0-4.1-1.3-7.2-3.5-9.4s-5.6-3.2-10.2-3.2h-11.9l4.6-3.7-28.5,133.9h.5,0Z"/>
    <path class="st0" d="M359.7,398.3l35.5-168.6h-30.4l8.9-42.3h111.3l-8.9,42.3h-30.6l-35.5,168.6h-50.3Z"/>
  </g>
</svg>