<?xml version="1.0" encoding="UTF-8"?>
<svg id="Layer_1" xmlns="http://www.w3.org/2000/svg" version="1.1" viewBox="0 0 612 54.4">
  <rect fill="#fff" x="238.6" width="373.4" height="54.4"/>
  <rect fill="transparent" width="238.6" height="54.4"/>

  <!-- Struyf -->
  <path fill="#fff" d="M91.2,7.6c7.8.2,18.6-2,19.4,8.8.3,4.1-.4,9.2-4.8,10.8l5.6,19.7h-5.3l-5.1-18.4h-4.4v18.4h-5.4V7.6h0ZM96.6,24.6h4.1c.7-.1,2.1-.5,3.3-1.7,1.9-1.9,1.8-4.5,1.8-5.4,0-1-.2-3.7-2.3-5.1-1-.7-2.1-.8-2.8-.8h-4.1c0,4.3,0,8.7,0,13Z"/>
  <path fill="#fff" d="M131,7.6v28.5c.2,3.1,1,6.6,4.7,6.8,4.5.3,5.5-3,5.8-6.8V7.6h5.2v27.4c-.3,7.4-2.5,12.6-10.9,12.4s-9.8-5.6-10.1-12.7V7.6h5.3,0Z"/>
  <path fill="#fff" d="M47.2,17.4l-4.7,1.2c0-4.4-2.1-8.7-7.2-6.7-3.2,1.2-2.9,5.6-1.1,7.9,4,5,11.5,8.1,13.2,15,2,7.8-3.2,13.7-11.2,12.4-5.7-.9-8.1-6-8.2-11.3l4.8-1.2c.2,4,1.4,8.9,6.4,8.4,3-.3,3.8-3.1,3.5-5.8-.7-6.5-12.6-10.7-14.3-17.6-1.9-8,3-13.5,11.2-12.2,5.5.9,7,5.1,7.6,10h0Z"/>
  <polygon fill="#fff" points="165 7.6 170.9 26.4 176.9 7.6 182.1 7.6 173.6 33.2 173.6 46.9 168.4 46.9 168.4 33 159.9 7.6 165 7.6"/>
  <polygon fill="#fff" points="211 7.6 211 11.5 201.2 11.5 201.2 24.6 208.7 24.6 208.7 28.5 201.2 28.5 201.2 46.9 195.8 46.9 195.8 7.6 211 7.6"/>
  <polygon fill="#fff" points="78.3 7.6 78.3 11.7 71.4 11.7 71.4 46.9 66 46.9 66 11.7 58.8 11.7 58.8 7.6 78.3 7.6"/>

  <!-- Consulting -->
  <path fill="#15181f" d="M313.3,7.4c8.4-.6,12.6,3.3,13.1,11.6.3,5.1.3,12,0,17.1-.4,7.2-3.6,11.6-11.2,11.8-8.6.2-11.9-4.2-12.3-12.4-.2-4.9-.2-11,0-15.9.3-7.1,2.7-11.6,10.3-12.2h0ZM314.7,42c.3,0,1.1,0,1.9-.6,1.3-.9,1.5-2.4,1.5-2.6,0,0,0-1.3,0-1.3,0-6.7,0-13.3,0-20v-1.3c0-.2-.2-1.8-1.5-2.6-.8-.5-1.7-.5-2-.5-.3,0-1.2,0-2.1.6-1.2.9-1.4,2.3-1.4,2.5v22.6c0,.2.2,1.7,1.5,2.5.9.6,1.8.6,2.1.6Z"/>
  <polygon fill="#15181f" points="346.9 7.9 355.7 28 355.7 7.9 362.4 7.9 362.4 47.2 356.9 47.2 348.1 25.8 348.1 47.2 341.2 47.2 341.2 7.9 346.9 7.9"/>
  <polygon fill="#15181f" points="540.1 7.9 548.9 28 548.9 7.9 555.7 7.9 555.7 47.2 550.1 47.2 541.4 25.8 541.4 47.2 534.5 47.2 534.5 7.9 540.1 7.9"/>
  <path fill="#15181f" d="M419.8,7.9v29.3c0,.7.5,2.5.8,3.1.8,1.5,3.2,1.9,4.6.9,1.7-1.2,1.4-3.8,1.7-5.5V7.9h7.8v29c-.5,7.1-3.7,10.8-11,10.9-8.9.1-11.5-4.5-11.8-12.7V7.9h8Z"/>
  <path fill="#15181f" d="M593.4,21.1h-8v-5.2c0-.3-.5-1.5-.8-1.8-.9-1.1-2.8-1.2-4-.7-1.7.7-1.7,2.4-2,4,.3,6.4-.4,13.1,0,19.5,0,1.1.3,2.9,1,3.8,1.2,1.7,4.3,1.5,5.5,0,.5-.6,1-2.6,1-3.3v-5.5h-3.9v-4.9h11.3v20.2h-5.4l-.5-3.5-1.3,2c-4.8,4.2-12.5,2-14.8-3.9-1.8-4.7-1.5-16.2-1.2-21.5.2-4.5,1-9.4,5.4-11.7,3.3-1.7,8.8-1.7,12.1-.3,5.2,2.2,5.5,7.9,5.5,12.8h0Z"/>
  <path fill="#15181f" d="M289.1,22.2h-7.8v-5.6c0-.1-.3-1.5-.4-1.7-.6-1.8-3.1-2.1-4.6-1.3-1.3.7-1.5,2.3-1.6,3.6.3,6.6-.4,13.6,0,20.2,0,1.4.4,3.6,1.8,4.2,1.7.8,3.8.4,4.4-1.5.2-.5.4-1.8.4-2.3v-5.3h7.8c.1,5.2.2,11.8-5.4,14.2-3.3,1.5-8.6,1.4-11.9-.2-4.2-2.1-5.2-6.9-5.4-11.2-.2-5.2-.6-17,1.1-21.6,2.2-6,8.6-7.2,14.3-6,7.3,1.5,7.6,8.2,7.4,14.5h0Z"/>
  <path fill="#15181f" d="M390.7,19.5c-.1-2.4,0-6.6-3.5-6.1-2.5.3-2.7,3.6-2.1,5.5,1.1,3.1,7.2,7.1,9.6,9.9,7.2,8.3,3.3,20.6-8.8,18.9-5.7-.8-8.1-4.6-8.8-10,0-.3-.2-1.9-.1-2.1.1-.4,6.1-1.2,6.9-1.4.3.2.1,1.4.1,1.8.2,1.8.7,4.7,2.7,5.4,2.6.9,3.9-1.1,3.8-3.5-.3-7.3-12-9.8-13.3-18.5-1.2-7.6,3.7-12.6,11.3-12.2,6.4.4,9.1,5,9,11l-6.9,1.2h0Z"/>
  <polygon fill="#15181f" points="497.8 7.9 497.8 13.8 491.6 13.8 491.6 47.2 483.5 47.2 483.5 13.8 477.2 13.8 477.2 7.9 497.8 7.9"/>
  <polygon fill="#15181f" points="458 7.9 458 41.7 467.1 41.7 467.1 47.2 449.9 47.2 449.9 7.9 458 7.9"/>
  <rect fill="#15181f" x="510.7" y="7.9" width="8.1" height="39.3"/>
</svg>