<?xml version="1.0" encoding="UTF-8"?>
<svg id="Layer_1" xmlns="http://www.w3.org/2000/svg" version="1.1" viewBox="0 0 636.2 591.6">
  <!-- Generator: Adobe Illustrator 29.2.1, SVG Export Plug-In . SVG Version: 2.1.0 Build 116)  -->
  <defs>
    <style>
      .st0 {
        fill: #15181f;
      }
    </style>
  </defs>
  <g id="Sceen">
    <path class="st0" d="M17.7,521.1h600.8v22.8c-200.2,0-400.5-.1-600.7-.3v-22.4M17.7,498.1c-4.6,0-9.1,2.5-12.4,6.8S.1,515.1.1,521.1v22.4c0,12.7,7.9,23,17.6,23h300.4c0,.1,300.4.3,300.4.3h0c9.7,0,17.5-10.2,17.6-22.8v-22.8c0-6.1-1.6-12-4.9-16.4-3.3-4.3-7.8-6.8-12.5-6.8H17.6h.1Z"/>
    <path class="st0" d="M17.4,47.8h600.8v22.8c-200.2,0-400.5,0-600.7-.3v-22.4M17.4,24.9c-4.6,0-9.1,2.5-12.4,6.8S-.2,41.8-.2,47.8v22.4c0,12.7,7.9,23,17.6,23l600.7.3h0c9.7,0,17.5-10.2,17.6-22.8v-22.8c0-6.1-1.6-12-4.9-16.4s-7.8-6.8-12.5-6.8H17.4Z"/>
    <rect class="st0" x="589" y="82.1" width="16" height="427.5"/>
    <rect class="st0" x="32.4" y="75.3" width="16" height="434.3"/>
  </g>
  <g id="demotiome">
    <path class="st0" d="M73.6,450.1l67.6-307h87.5c15.4,0,28.6,2.3,40.5,6.7s21.4,11.3,28.8,20.8,12,21.1,14,35.3c2,14.2,1.2,30.8-3.3,50.5l-21,95.6c-4.9,22.7-13.2,41.7-23.9,55.9-10.7,14.6-24.7,25.5-42.2,32.2-16.8,6.9-37.5,10.1-61.6,10.1h-87.5,1.1ZM162.4,393.3l-3.3-3.7h17.4c5.6,0,11.1-1.2,15.4-3.2s8-6,11.1-11.6c3.2-5.9,5.6-13.6,8.3-24.3l23.9-106.4c2-8.5,2.9-15.8,2.4-21.5,0-6-2-10.5-5.3-13.6s-8.5-4.7-15.6-4.7h-18.3l7.1-5.3-43.8,195.1h.8l.3-.4v-.3h-.1Z"/>
    <path class="st0" d="M372.2,450.5l54.5-245.6h-46.6l13.6-61.6h170.8l-13.6,61.6h-46.9l-54.5,245.6h-77.3Z"/>
  </g>
</svg>