<svg xmlns="http://www.w3.org/2000/svg" width="24" height="24" fill="none" stroke="currentColor" stroke-width="2" stroke-linecap="round" stroke-linejoin="round" class="lucide lucide-timer-off"><path d="M1.67 1.061c-.222.081-.42.248-.542.455-.091.156-.108.23-.108.484s.016.327.107.48c.137.229 20.24 20.325 20.433 20.425.099.052.228.074.44.074.258.001.327-.015.492-.112.222-.13.409-.369.473-.603a1.187 1.187 0 0 0-.066-.709c-.037-.074-.733-.803-1.547-1.619l-1.479-1.484.184-.365a8.693 8.693 0 0 0 .953-4.047c0-1.483-.3-2.746-.972-4.085-.795-1.584-2.214-3.044-3.764-3.872-1.544-.825-3.155-1.181-4.87-1.078a8.447 8.447 0 0 0-3.322.86l-.538.257-2.502-2.496c-2.268-2.262-2.52-2.502-2.699-2.561a1.015 1.015 0 0 0-.673-.004m8.025-.004a1.04 1.04 0 0 0-.567.459c-.091.156-.108.23-.108.484 0 .256.016.328.111.489.125.213.318.375.539.454.219.078 4.441.078 4.66 0 .221-.079.414-.241.539-.454.095-.161.111-.233.111-.489 0-.254-.017-.328-.108-.484a1.02 1.02 0 0 0-.582-.461c-.257-.077-4.347-.076-4.595.002m3.185 5.989c2.043.254 3.914 1.462 5.07 3.274.091.143.265.467.386.72.472.987.668 1.87.668 3.011 0 .94-.156 1.769-.49 2.603l-.126.314-2.691-2.691-2.692-2.692-.012-.942-.013-.943-.109-.186c-.38-.645-1.315-.671-1.711-.047l-.106.167-1.011-1.011-1.01-1.011.313-.126c1.131-.453 2.278-.596 3.534-.44m-8.616 3.015c-.395.15-.536.351-.8 1.143-.342 1.027-.471 1.792-.47 2.796.001.993.105 1.732.372 2.64a8.808 8.808 0 0 0 2.977 4.424c1.29 1.027 2.716 1.629 4.457 1.882.575.083 1.768.081 2.34-.004.908-.136 2.159-.519 2.472-.758.567-.432.481-1.344-.156-1.662-.323-.161-.526-.154-1.056.036-.906.325-1.569.446-2.437.446-2.562 0-4.814-1.295-6.07-3.49-.561-.979-.84-2.007-.882-3.245-.033-.98.082-1.691.43-2.668.088-.244.159-.513.159-.596 0-.208-.1-.483-.236-.648-.239-.29-.753-.428-1.1-.296" fill-rule="evenodd" fill="#000" stroke="none"/></svg>