<svg xmlns="http://www.w3.org/2000/svg" width="24" height="24" fill="none" stroke="currentColor" stroke-width="2" stroke-linecap="round" stroke-linejoin="round" class="lucide lucide-timer"><path d="M9.695 1.057a1.04 1.04 0 0 0-.567.459c-.091.156-.108.23-.108.484 0 .256.016.328.111.489.125.213.318.375.539.454.219.078 4.441.078 4.66 0 .221-.079.414-.241.539-.454.095-.161.111-.233.111-.489 0-.254-.017-.328-.108-.484a1.02 1.02 0 0 0-.582-.461c-.257-.077-4.347-.076-4.595.002m1.645 3.967c-1.314.136-2.249.391-3.28.894a8.874 8.874 0 0 0-4.121 4.102 8.91 8.91 0 0 0 0 7.96 8.46 8.46 0 0 0 1.682 2.357 8.97 8.97 0 0 0 10.319 1.747 8.74 8.74 0 0 0 2.418-1.726 8.973 8.973 0 0 0 1.726-10.298 8.996 8.996 0 0 0-6.764-4.959c-.409-.062-1.658-.11-1.98-.077m1.762 2.074c2.997.453 5.389 2.887 5.822 5.922.066.463.066 1.497 0 1.96-.437 3.067-2.798 5.444-5.904 5.946-.413.066-1.627.066-2.04 0-3.107-.502-5.467-2.879-5.904-5.946-.109-.763-.054-1.887.129-2.64A7.02 7.02 0 0 1 9.62 7.427c.63-.227 1.095-.325 1.92-.404.273-.026 1.186.018 1.562.075m1.538 2.971c-.152.052-.432.312-1.793 1.666-.887.883-1.661 1.686-1.72 1.785-.09.152-.107.226-.107.48 0 .257.016.327.113.492.28.476.9.646 1.359.373.215-.127 3.315-3.239 3.413-3.425.052-.099.074-.228.074-.44.001-.255-.015-.328-.107-.484a1.013 1.013 0 0 0-1.232-.447" fill="#000" fill-rule="evenodd" stroke="none"/></svg>