<svg
	width="30"
	version="1.1"
	xmlns="http://www.w3.org/2000/svg"
	xmlns:xlink="http://www.w3.org/1999/xlink"
	x="0px"
	y="0px"
	viewBox="0 0 30 30"
	xml:space="preserve"
>
	<path
		fill="#4285F4"
		d="M6,19.2c-1.2-0.7-2.3-1.3-3.5-2c-0.5-0.3-1-0.5-1.5-0.9c-0.6-0.4-0.9-1-1-1.8c-0.1-0.9,0.2-1.6,1-2.2
		c0.9-0.6,1.8-0.6,2.8,0c0.8,0.4,1.6,0.9,2.3,1.3c0.6,0.4,1.3,0.7,1.9,1.1c0.6,0.4,1.3,0.7,1.9,1.1c0.7,0.4,1.4,0.8,2.1,1.2
		c0.6,0.4,1,1,1.1,1.7c0.2,1.1-0.5,2.2-1.5,2.5c-0.1,0-0.1,0-0.1,0.1c0,0,0,0,0,0c-0.7,0.2-1.3,0.1-1.9-0.2c-0.8-0.5-1.6-0.9-2.4-1.4
		C6.9,19.7,6.5,19.5,6,19.2z"
	/>
	<path
		fill="#0F9D58"
		d="M22.7,14.4c-1.2-0.7-2.3-1.3-3.5-2c-0.5-0.3-1-0.5-1.5-0.9c-0.6-0.4-0.9-1-1-1.8c-0.1-0.9,0.2-1.6,1-2.2
		c0.9-0.6,1.8-0.6,2.8,0c0.8,0.4,1.6,0.9,2.3,1.3c0.6,0.4,1.3,0.7,1.9,1.1c0.6,0.4,1.3,0.7,1.9,1.1c0.7,0.4,1.4,0.8,2.1,1.2
		c0.6,0.4,1,1,1.1,1.7c0.2,1.1-0.5,2.2-1.5,2.5c-0.1,0-0.1,0-0.1,0.1c0,0,0,0,0,0c-0.7,0.2-1.3,0.1-1.9-0.2c-0.8-0.5-1.6-0.9-2.4-1.4
		C23.5,14.9,23.1,14.7,22.7,14.4z"
	/>
	<path
		fill="#FBBC04"
		d="M22.7,14.4c0.4,0.2,0.9,0.4,1.3,0.7c0.8,0.5,1.6,0.9,2.4,1.4c0.6,0.3,1.2,0.4,1.9,0.2c-0.3,0.2-0.7,0.4-1,0.6
		c-0.7,0.4-1.5,0.8-2.2,1.3c-0.7,0.4-1.4,0.8-2,1.2c-0.6,0.4-1.3,0.7-1.9,1.1c-0.4,0.2-0.8,0.5-1.2,0.6c-1.1,0.4-2.5-0.2-2.9-1.3
		c-0.3-0.8-0.2-1.6,0.2-2.3c0.2-0.4,0.6-0.6,0.9-0.8c0.9-0.5,1.8-1.1,2.8-1.6C21.5,15.1,22.1,14.8,22.7,14.4z"
	/>
	<path
		fill="#EA4335"
		d="M7.4,14.4c-0.9-0.5-1.7-1-2.6-1.5c-0.3-0.2-0.7-0.4-1-0.6C3.1,12,2.4,12,1.7,12.2c0.7-0.4,1.4-0.8,2.1-1.2
		c0.6-0.4,1.2-0.7,1.8-1.1C6.4,9.4,7.2,8.9,8,8.5c0.7-0.4,1.3-0.7,2-1.1c0.5-0.3,1.1-0.3,1.7-0.1c0.8,0.3,1.4,0.8,1.6,1.6
		c0.3,1.1,0,2.1-1.1,2.8c-1.2,0.7-2.5,1.4-3.7,2.2C8.1,14,7.7,14.2,7.4,14.4z"
	/>
</svg>