<svg
  width="30"
  height="30"
  xmlns="http://www.w3.org/2000/svg"
  viewBox="0 0 63.43 63.43"
>
  <path
    d="M28.22,37.72c-.1.49-.21,1.27-.33,2.35l-.09.7h-.07a19.09,19.09,0,0,0-.48-3L24.57,26.18H19.41V45.31h3.05V35.17c0-1.75,0-3.53-.13-5.32h.1L23,33.23l2.93,12.08h3.36L32,33.06c.26-1.33.45-2.41.57-3.21h.08c-.09,1.93-.13,3.37-.13,4.33V45.31h3.16V26.18h-5Zm27.09,1.06h1.53a5.68,5.68,0,0,0,4.41-1.84,6.69,6.69,0,0,0,1.66-4.67,6.2,6.2,0,0,0-1.52-4.53,5.62,5.62,0,0,0-4.24-1.56H51.63V45.31h3.68Zm0-9.4h1.23a2.37,2.37,0,0,1,1.84.78,3.29,3.29,0,0,1,.7,2.31c0,2.1-.83,3.14-2.51,3.14H55.31ZM41.68,45.31h3.94L50.5,26.18H46.79L44.14,38.72c-.13.69-.22,1.35-.28,2l-.07.51H43.7a16.36,16.36,0,0,0-.3-2.43l-2.65-12.6H36.93Zm-1.9,22.78L8.06,36.37,39.76,4.66,71.49,36.39Z"
    transform="translate(-8.06 -4.66)"
    fill="#4285F4"
  ></path>
</svg>