<?xml version="1.0" encoding="UTF-8"?>
<svg id="Layer_1" xmlns="http://www.w3.org/2000/svg" version="1.1" viewBox="0 0 636.2 591.6">
  <!-- Generator: Adobe Illustrator 29.2.1, SVG Export Plug-In . SVG Version: 2.1.0 Build 116)  -->
  <defs>
    <style>
      .st0 {
        fill: #15181f;
      }

      .st1 {
        stroke: #15181f;
        stroke-miterlimit: 10;
        stroke-width: 16px;
      }

      .st1, .st2 {
        fill: #fff;
      }

      .st3 {
        fill: #ffd43b;
      }
    </style>
  </defs>
  <g id="Background">
    <path class="st3" d="M635.6,286.6c5.5,80.9-30,145.5-50.9,177.1h-24.8c-2.2.3-4,1.8-4.4,3.8-.6,2.5,1.3,5.4,4.3,6.1,6.7,0,13.4.2,20.1.2-2,2.8-3.7,5-4.5,6,0,0-33.8,43.2-123.8,103-.5.3-1.9,1.3-1.7,1.9.1.4,1,.5,1.6.6,3.1.4,14.4,0,19.7,0,2.2-.2,3.9,1.6,3.8,3.3,0,1.5-1.6,2.9-3.5,2.9-14.7,0-29.5,0-44.2-.2-46.3.3-83.7.2-109.2.2s-62.1-.3-111-.2c-19,0-34.5,0-44.6,0-1.9,0-3.5-1.3-3.5-2.9s1.6-3.4,3.8-3.2h19.8c.6,0,1.5-.2,1.6-.6.2-.6-1.1-1.5-1.7-1.9-5.6-3.7-27.9-17.1-36.8-23.1h0s-19.7-12-42.3-32.7c-7.2-6.6-14.2-13.8-14.2-13.8-1.9-2-3.5-3.7-4.5-4.8h11.9c2.2.3,3.9-1.4,3.9-3.1s-1.8-3.2-4-2.9h-17.2C58.5,478.4-7.6,394.8.7,283.5,11.9,133.3,153.9-.4,318.7,0c168.7.4,307.1,141.1,316.9,286.6Z"/>
    <path class="st3" d="M161,569.6"/>
  </g>
  <g id="Sceen">
    <g>
      <path class="st2" d="M207.7,583.6c-3.2,0-6.1-1.9-7.4-4.9-1.3-3-.6-6.4,1.6-8.7l98.9-101.2c1.5-1.5,3.6-2.4,5.7-2.4s4.2.9,5.7,2.4l13.5,13.8c3.1,3.1,3,8.1,0,11.2l-87,87.3c-1.5,1.5-3.5,2.3-5.6,2.4l-25.4.2h0Z"/>
      <path class="st0" d="M306.5,474.3c4.5,4.6,9,9.2,13.5,13.8-29,29.1-58,58.2-87,87.3-8.4,0-16.9,0-25.3.2,33-33.7,65.9-67.5,98.9-101.2M306.5,458.3c-4.3,0-8.4,1.7-11.4,4.8l-65.6,67.2-33.2,34c-4.5,4.6-5.8,11.5-3.3,17.4s8.3,9.7,14.7,9.7,0,0,.1,0l25.3-.2c4.2,0,8.2-1.7,11.2-4.7l87-87.3c6.2-6.2,6.2-16.2.1-22.5l-13.5-13.8c-3-3.1-7.1-4.8-11.4-4.8h0v.2h0Z"/>
    </g>
    <g>
      <path class="st2" d="M309.8,583.5c-4.4,0-8-3.6-8-8v-52.8c0-2.1.8-4.1,2.3-5.6l10.2-10.5c1.5-1.5,3.5-2.4,5.7-2.4h0c2.1,0,4.1.8,5.6,2.3l7.7,7.7c1.5,1.5,2.4,3.5,2.4,5.7v55.6c0,4.4-3.6,8-8,8h-18,0Z"/>
      <path class="st0" d="M320,512.3c2.6,2.6,5.2,5.1,7.7,7.7v55.6h-18v-52.8c3.4-3.5,6.8-7,10.2-10.5M320,496.3h-.1c-4.3,0-8.3,1.8-11.3,4.8l-6.1,6.3-4.1,4.2c-2.9,3-4.6,7-4.6,11.2v52.8c0,8.8,7.2,16,16,16h18c8.8,0,16-7.2,16-16v-55.6c0-4.3-1.7-8.3-4.7-11.3l-7.7-7.7c-3-3-7.1-4.7-11.3-4.7h0Z"/>
    </g>
    <g>
      <path class="st2" d="M327.8,473.2c-1.3,0-2.7-.3-3.9-1l-18-9.9c-2.6-1.4-4.1-4.1-4.1-7v-35.7c0-2.1.8-4.2,2.3-5.7s3.5-2.3,5.7-2.3h18.1c4.4,0,8,3.6,8,8v45.6c0,2.8-1.5,5.4-3.9,6.9-1.3.7-2.7,1.1-4.1,1.1h-.1Z"/>
      <path class="st0" d="M327.8,419.6v45.6c-6-3.3-12-6.6-18-9.9v-35.7h18.1M327.8,403.6h-18.1c-4.2,0-8.3,1.7-11.3,4.7s-4.7,7.1-4.7,11.3v35.7c0,5.8,3.3,11.2,8.4,14l18,9.9c2.4,1.3,5.1,2,7.7,2s5.6-.7,8.1-2.2c4.9-2.9,7.9-8.1,7.9-13.8v-45.6c0-8.8-7.2-16-16-16h0Z"/>
    </g>
    <g>
      <path class="st2" d="M405.3,583.6c-2.2,0-4.3-.9-5.8-2.5l-95.6-99.9c-1.4-1.5-2.2-3.5-2.2-5.6v-18.5c0-3,1.8-5.8,4.5-7.2,1.1-.5,2.3-.8,3.5-.8,1.7,0,3.5.6,4.9,1.7l18,13.9c.3.3.7.5.9.9l98.3,104.4c2.2,2.3,2.8,5.7,1.5,8.7s-4.2,4.8-7.3,4.8h-20.7Z"/>
      <path class="st0" d="M309.7,457.2c6,4.6,12,9.3,18,13.9,32.8,34.8,65.5,69.6,98.3,104.4h-20.7c-31.9-33.3-63.8-66.6-95.6-99.9v-18.5M309.7,441.2c-2.4,0-4.8.5-7,1.6-5.5,2.7-8.9,8.2-9,14.3v18.4c0,4.1,1.6,8.1,4.4,11.1l95.6,99.9c3,3.2,7.2,4.9,11.6,4.9h20.7c6.4,0,12.2-3.8,14.7-9.7s1.3-12.7-3-17.3l-98.3-104.4c-.6-.6-1.2-1.2-1.9-1.7l-10.2-7.8-7.8-6c-2.9-2.2-6.3-3.3-9.8-3.3h0Z"/>
    </g>
    <g>
      <path class="st2" d="M75.3,411.1c-2.1,0-4.2-.9-5.7-2.4s-2.3-3.6-2.3-5.7v-10.4c.2-4.4,3.8-7.9,8.1-7.9h486.2c4.4,0,8,3.6,8,8v10.3c0,2.1-.8,4.2-2.3,5.7s-3.5,2.3-5.7,2.3H75.3Z"/>
      <path class="st0" d="M75.5,392.7h486.2v10.3H75.4v-10.4M75.5,376.7c-8.8,0-15.9,7-16,15.8v10.4c0,4.3,1.5,8.4,4.5,11.4s7.1,4.8,11.4,4.8h486.4c4.2,0,8.3-1.7,11.3-4.7s4.7-7.1,4.7-11.3v-10.3c0-8.8-7.2-16-16-16H75.5Z"/>
    </g>
    <g>
      <path class="st2" d="M44.8,383.2c-4.4,0-8-3.6-8-8v-15.6c0-2.1.8-4.2,2.3-5.7s3.5-2.3,5.7-2.3h547.1c2.1,0,4.2.9,5.7,2.4s2.3,3.6,2.3,5.7v15.8c-.2,4.4-3.8,7.9-8.1,7.9s-547-.2-547-.2h0Z"/>
      <path class="st0" d="M44.8,359.6h547.1v15.8c-182.3,0-364.7-.1-547-.2v-15.6M44.8,343.6c-4.2,0-8.3,1.7-11.3,4.7s-4.7,7.1-4.7,11.3v15.6c0,8.8,7.2,16,16,16h273.5c0,.1,273.5.2,273.5.2h0c8.8,0,15.9-7.1,16-15.8v-15.8c0-4.3-1.5-8.4-4.5-11.4s-7.1-4.7-11.4-4.7H44.7h0Z"/>
    </g>
    <g>
      <path class="st2" d="M44.5,53.8c-4.4,0-8-3.6-8-8v-15.6c0-2.1.8-4.2,2.3-5.7s3.5-2.3,5.7-2.3h547.1c2.1,0,4.2.9,5.7,2.4s2.3,3.6,2.3,5.7v15.8c-.2,4.4-3.8,7.9-8.1,7.9s-547-.2-547-.2h0Z"/>
      <path class="st0" d="M44.5,30.2h547.1v15.8c-182.3,0-364.7,0-547-.2v-15.6M44.5,14.2c-4.2,0-8.3,1.7-11.3,4.7s-4.7,7.1-4.7,11.3v15.6c0,8.8,7.2,16,16,16l547,.2h0c8.8,0,15.9-7.1,16-15.8v-15.8c0-4.3-1.5-8.4-4.5-11.4s-7.1-4.7-11.4-4.7H44.5Z"/>
    </g>
    <rect class="st1" x="65.4" y="53.9" width="506.8" height="297.7"/>
  </g>
  <g id="Bottom">
    <path class="st2" d="M327.8,454.6c-6-4.6-12-9.2-18.1-13.9,3.4-.9,6.9-1.8,10.3-2.6,2.6,2.9,5.1,5.8,7.7,8.7v7.8h.1Z"/>
  </g>
  <g id="Decoration">
    <ellipse class="st0" cx="405.5" cy="81.6" rx="5.9" ry="6.1"/>
    <ellipse class="st0" cx="545.9" cy="192.8" rx="5.9" ry="6.1"/>
    <ellipse class="st0" cx="147" cy="81.6" rx="5.9" ry="6.1"/>
    <ellipse class="st0" cx="90.7" cy="258.4" rx="5.9" ry="6.1"/>
    <ellipse class="st0" cx="90.7" cy="238.5" rx="5.9" ry="6.1"/>
    <rect class="st0" x="367.5" y="76.2" width="18.1" height="10.8" rx="5.2" ry="5.2"/>
    <rect class="st0" x="429.9" y="76.2" width="49.7" height="10.8" rx="5.2" ry="5.2"/>
    <rect class="st0" x="540.6" y="205.3" width="10.5" height="51.4" rx="5.2" ry="5.2"/>
    <rect class="st0" x="157" y="320.3" width="49.7" height="10.8" rx="5.2" ry="5.2"/>
    <rect class="st0" x="85.7" y="137.4" width="10.5" height="22" rx="5.2" ry="5.2"/>
    <rect class="st0" x="85.7" y="168.9" width="10.5" height="22" rx="5.2" ry="5.2"/>
    <path class="st0" d="M499.3,76.6h46.1c3.1,0,5.7,2.5,5.7,5.7v5.1h-51.8c-2.9,0-5.2-2.3-5.2-5.2v-.3c0-2.9,2.3-5.2,5.2-5.2h0Z"/>
    <path class="st0" d="M540.7,134.7v-58.2h4.8c3.1,0,5.7,2.5,5.7,5.7v52.5c0,2.9-2.3,5.2-5.2,5.2h0c-2.9,0-5.2-2.3-5.2-5.2h0Z"/>
    <path class="st0" d="M550.8,285.1v40.6c0,3.1-2.5,5.7-5.7,5.7h-4.8v-46.3c0-2.9,2.3-5.2,5.2-5.2h0c2.9,0,5.2,2.3,5.2,5.2h0Z"/>
    <path class="st0" d="M519.8,320.7h31v5.1c0,3.1-2.5,5.7-5.7,5.7h-25.3c-2.9,0-5.2-2.3-5.2-5.2v-.3c0-2.9,2.3-5.2,5.2-5.2h0Z"/>
    <path class="st0" d="M144.6,331.1h-53.2c-3.1,0-5.7-2.5-5.7-5.7v-5.1h58.9c2.9,0,5.2,2.3,5.2,5.2v.3c0,2.9-2.3,5.2-5.2,5.2h0Z"/>
    <path class="st0" d="M96.1,277.4v53.3h-4.8c-3.1,0-5.7-2.5-5.7-5.7v-47.6c0-2.9,2.3-5.2,5.2-5.2h0c2.9,0,5.2,2.3,5.2,5.2h.1Z"/>
    <path class="st0" d="M85.7,122.2v-40.6c0-3.1,2.5-5.7,5.7-5.7h4.8v46.3c0,2.9-2.3,5.2-5.2,5.2h0c-2.9,0-5.2-2.3-5.2-5.2h-.1Z"/>
    <path class="st0" d="M116.8,86.6h-31v-5.1c0-3.1,2.5-5.7,5.7-5.7h25.3c2.9,0,5.2,2.3,5.2,5.2v.3c0,2.9-2.3,5.2-5.2,5.2h0Z"/>
  </g>
  <g id="demotiome">
    <path class="st0" d="M194.4,190.9l16.4-78.4h21.2c3.7,0,6.9.6,9.8,1.7,2.9,1.1,5.2,2.9,7,5.3s2.9,5.4,3.4,9,.3,7.9-.8,12.9l-5.1,24.4c-1.2,5.8-3.2,10.6-5.8,14.3s-6,6.5-10.2,8.2c-4.1,1.8-9.1,2.6-14.9,2.6h-21.2.2ZM215.9,176.4l-.8-1h4.2c1.4,0,2.7-.3,3.7-.8s1.9-1.5,2.7-3,1.4-3.5,2-6.2l5.8-27.2c.5-2.2.7-4,.6-5.5,0-1.5-.5-2.7-1.3-3.5s-2.1-1.2-3.8-1.2h-4.4l1.7-1.4-10.6,49.8h.2Z"/>
    <path class="st0" d="M255.2,190.9l16.5-78.4h35.6l-3.3,15.8h-17.1l-9.8,46.8h17.7l-3.3,15.8h-36.3ZM278.8,158.7l3.2-15.5h15.1l-3.2,15.5h-15.1Z"/>
    <path class="st0" d="M305.4,190.9l16.4-78.4h27.6l-3.2,29.9-1.2,8.3h.4l2.6-8.3,9.5-29.9h27l-16.6,78.4h-16.3l10.3-47.9,2.3-9.7h-.4l-3.3,9.4-17.1,48.2h-13.5l3.3-48.2.9-9.4h-.4l-1.8,9.7-10.3,47.9h-16.2,0Z"/>
    <path class="st0" d="M409,191.9c-4.3,0-8-.7-11.1-2.1-3.1-1.4-5.5-3.4-7.2-6s-2.8-5.7-3.2-9.4c-.4-3.6-.2-7.7.8-12.1l5.9-28.1c1.2-5.4,3-9.8,5.5-13.2s5.5-5.8,9-7.3,7.4-2.3,11.7-2.3,8,.7,11,2.1,5.4,3.4,7.1,6,2.8,5.7,3.2,9.4c.4,3.6.2,7.7-.8,12.1l-5.9,28.1c-1.2,5.5-3,9.8-5.5,13.2-2.5,3.3-5.5,5.8-9,7.3s-7.4,2.3-11.6,2.3h.1ZM410.1,176.5c1.2,0,2.2-.2,3-.7s1.4-1.1,1.9-2,.9-1.8,1.1-2.9l7.8-36.4c.4-1.6.4-3,.2-4.1-.3-1.1-.8-2-1.6-2.6-.8-.6-1.8-.9-3.1-.9s-2.1.2-3,.7c-.8.5-1.5,1.1-2,1.9s-.9,1.8-1.2,3l-7.8,36.4c-.4,1.6-.4,2.9-.1,4.1.3,1.1.9,2,1.7,2.6.9.6,1.9.9,3.1.9h0Z"/>
    <path class="st0" d="M213.6,293.5l13.2-62.7h-11.3l3.3-15.7h41.4l-3.3,15.7h-11.4l-13.2,62.7h-18.7Z"/>
    <path class="st0" d="M255.9,293.5l3.3-15.8h37.2l-3.3,15.8h-37.2ZM268.2,279.4l10.6-50.2h18.6l-10.6,50.2h-18.6ZM269.2,230.9l3.3-15.8h37.2l-3.3,15.8h-37.2Z"/>
    <path class="st0" d="M307.2,293.5l16.4-78.4h27.6l-3.2,29.9-1.2,8.3h.4l2.6-8.3,9.5-29.9h27l-16.6,78.4h-16.3l10.3-47.9,2.3-9.7h-.4l-3.3,9.4-17.1,48.2h-13.5l3.3-48.2.9-9.4h-.4l-1.8,9.7-10.3,47.9h-16.2,0Z"/>
    <path class="st0" d="M385,293.5l16.5-78.4h35.6l-3.3,15.8h-17.1l-9.8,46.8h17.7l-3.3,15.8h-36.3ZM408.6,261.3l3.2-15.5h15.1l-3.2,15.5h-15.1Z"/>
  </g>
</svg>