<?xml version="1.0" encoding="utf-8"?>
<!-- Generator: Adobe Illustrator 28.0.0, SVG Export Plug-In . SVG Version: 6.00 Build 0)  -->
<svg version="1.1" id="Layer_1" xmlns="http://www.w3.org/2000/svg" xmlns:xlink="http://www.w3.org/1999/xlink" x="0px" y="0px" viewBox="0 0 128 128" xml:space="preserve">
<circle stroke="#0e131f" fill="transparent" stroke-width="10" cx="64" cy="64" r="54"/>
<g>
	<g>
		<path fill="#0e131f" d="M24.6,57.8l2.9-16h7.2c1.8,0,3.4,0.3,4.7,0.9c1.3,0.6,2.2,1.4,2.8,2.5c0.6,1.1,0.9,2.4,0.9,3.8v0.2c0,1.7-0.4,3.2-1.2,4.5
			c-0.8,1.3-2,2.3-3.4,3c-1.5,0.7-3.1,1.1-5,1.1H24.6z M30.6,53.8h2.9c0.7,0,1.2-0.1,1.8-0.3c0.5-0.2,1-0.5,1.3-0.9
			c0.3-0.4,0.6-1,0.7-1.7l0.3-1.7c0.1-0.9,0.1-1.5-0.2-2c-0.2-0.5-0.6-0.9-1.2-1.1c-0.6-0.2-1.2-0.3-2-0.3H32L30.6,53.8z"/>
		<path fill="#0e131f" d="M44.7,72.2H29.4l0.8-4h15.2L44.7,72.2z M34.5,71.8h5.2l-2.2,12.3h-5.2L34.5,71.8z"/>
	</g>
</g>
</svg>
