<?xml version="1.0" encoding="utf-8"?>
<!-- Generator: Adobe Illustrator 28.0.0, SVG Export Plug-In . SVG Version: 6.00 Build 0)  -->
<svg version="1.1" id="Layer_1" xmlns="http://www.w3.org/2000/svg" xmlns:xlink="http://www.w3.org/1999/xlink" x="0px" y="0px"
	 viewBox="0 0 128 128" style="enable-background:new 0 0 128 128;" xml:space="preserve">
<circle class="st0" cx="64" cy="64" r="54" stroke-width="10" stroke="#424242" fill="none"/>
<g>
	<g>
		<path d="M26.5,79.3V48.7h18.1c4.1,0,7.6,0.5,10.7,1.6c3.1,1.1,5.5,2.7,7.3,5c1.7,2.2,2.6,5.1,2.6,8.5v0.3c0,3.4-0.9,6.3-2.6,8.4
			c-1.7,2.3-4.2,3.9-7.3,5s-6.6,1.6-10.7,1.6H26.5z M38.1,71.5h6c2.2,0,3.9-0.3,5.2-0.8c1.3-0.5,2.2-1.3,2.7-2.2
			c0.5-0.9,0.8-2,0.8-3.2v-2.7c0-1.2-0.3-2.3-0.8-3.2c-0.5-0.9-1.5-1.6-2.7-2.2c-1.3-0.5-2.9-0.8-5.2-0.8h-6V71.5z" fill="#424242" />
		<path d="M101.5,56.6H67.3v-7.8h34.2C101.5,48.8,101.5,56.6,101.5,56.6z M78.5,56h11.4v23.2H78.5V56z" fill="#424242"/>
	</g>
</g>
</svg>
