<?xml version="1.0" encoding="UTF-8"?>
<svg id="Layer_1" xmlns="http://www.w3.org/2000/svg" version="1.1" viewBox="0 0 636.2 636.2">
  <!-- Generator: Adobe Illustrator 29.2.1, SVG Export Plug-In . SVG Version: 2.1.0 Build 116)  -->
  <defs>
    <style>
      .st0 {
        fill: #15181f;
      }

      .st1 {
        stroke: #15181f;
        stroke-miterlimit: 10;
        stroke-width: 16px;
      }

      .st1, .st2 {
        fill: #fff;
      }

      .st3 {
        fill: #ffd43b;
      }
    </style>
  </defs>
  <g id="Background">
    <path class="st3" d="M636.3,308.2c5.5,87-30,156.4-50.9,190.4h-24.8c-2.2.3-4,1.9-4.4,4.1-.6,2.7,1.3,5.8,4.3,6.6,6.7,0,13.4.2,20.1.2-2,3-3.7,5.4-4.5,6.5,0,0-33.8,46.4-123.8,110.7-.5.3-1.9,1.4-1.7,2,.1.4,1,.5,1.6.6,3.1.4,14.4,0,19.7,0,2.2-.2,3.9,1.7,3.8,3.5,0,1.6-1.6,3.1-3.5,3.1-14.7,0-29.5,0-44.2-.2-46.3.3-83.7.2-109.2.2s-62.1-.3-111-.2c-19,0-34.5,0-44.6,0-1.9,0-3.5-1.4-3.5-3.1s1.6-3.7,3.8-3.4h19.8c.6,0,1.5-.2,1.6-.6.2-.6-1.1-1.6-1.7-2-5.6-4-27.9-18.4-36.8-24.8h0s-19.7-12.9-42.3-35.2c-7.2-7.1-14.2-14.8-14.2-14.8-1.9-2.2-3.5-4-4.5-5.2h11.9c2.2.3,3.9-1.5,3.9-3.3s-1.8-3.4-4-3.1h-17.2C59.2,514.4-6.9,424.5,1.4,304.8,12.6,143.3,154.6-.4,319.4,0c168.7.4,307.1,151.7,316.9,308.2Z"/>
    <path class="st3" d="M161.7,612.5"/>
  </g>
  <g id="Bottom">
    <path class="st2" d="M327.8,465.1c-6-4.9-12-9.9-18.1-14.9,3.4-1,6.9-1.9,10.3-2.8,2.6,3.1,5.1,6.2,7.7,9.3v8.4h.1Z"/>
    <g>
      <path class="st2" d="M207.7,626.6c-3.2,0-6.1-2.3-7.4-5.9-1.3-3.6-.6-7.7,1.6-10.5l98.9-121.6c1.5-1.8,3.6-2.9,5.7-2.9s4.2,1.1,5.7,2.9l13.5,16.6c3.1,3.7,3,9.7,0,13.5l-87,104.9c-1.5,1.8-3.5,2.8-5.6,2.9l-25.4.2h0Z"/>
      <path class="st0" d="M306.5,495.3c4.5,5.5,9,11.1,13.5,16.6-29,35-58,69.9-87,104.9-8.4,0-16.9,0-25.3.2,33-40.5,65.9-81.1,98.9-121.6M306.5,476c-4.3,0-8.4,2-11.4,5.8l-65.6,80.7-33.2,40.9c-4.5,5.5-5.8,13.8-3.3,20.9s8.3,11.7,14.7,11.7,0,0,.1,0l25.3-.2c4.2,0,8.2-2,11.2-5.6l87-104.9c6.2-7.4,6.2-19.5.1-27l-13.5-16.6c-3-3.7-7.1-5.8-11.4-5.8h0v.2h0Z"/>
    </g>
    <g>
      <path class="st2" d="M309.8,626.5c-4.4,0-8-4.3-8-9.6v-63.4c0-2.5.8-4.9,2.3-6.7l10.2-12.6c1.5-1.8,3.5-2.9,5.7-2.9h0c2.1,0,4.1,1,5.6,2.8l7.7,9.3c1.5,1.8,2.4,4.2,2.4,6.8v66.8c0,5.3-3.6,9.6-8,9.6h-18,0Z"/>
      <path class="st0" d="M320,540.9c2.6,3.1,5.2,6.1,7.7,9.3v66.8h-18v-63.4c3.4-4.2,6.8-8.4,10.2-12.6M320,521.7h-.1c-4.3,0-8.3,2.2-11.3,5.8l-6.1,7.6-4.1,5c-2.9,3.6-4.6,8.4-4.6,13.5v63.4c0,10.6,7.2,19.2,16,19.2h18c8.8,0,16-8.7,16-19.2v-66.8c0-5.2-1.7-10-4.7-13.6l-7.7-9.3c-3-3.6-7.1-5.6-11.3-5.6h0Z"/>
    </g>
    <g>
      <path class="st2" d="M327.8,493.9c-1.3,0-2.7-.4-3.9-1.2l-18-11.9c-2.6-1.7-4.1-4.9-4.1-8.4v-42.9c0-2.5.8-5,2.3-6.8s3.5-2.8,5.7-2.8h18.1c4.4,0,8,4.3,8,9.6v54.8c0,3.4-1.5,6.5-3.9,8.3-1.3.8-2.7,1.3-4.1,1.3h-.1Z"/>
      <path class="st0" d="M327.8,429.5v54.8c-6-4-12-7.9-18-11.9v-42.9h18.1M327.8,410.3h-18.1c-4.2,0-8.3,2-11.3,5.6s-4.7,8.5-4.7,13.6v42.9c0,7,3.3,13.5,8.4,16.8l18,11.9c2.4,1.6,5.1,2.4,7.7,2.4s5.6-.8,8.1-2.6c4.9-3.5,7.9-9.7,7.9-16.6v-54.8c0-10.6-7.2-19.2-16-19.2h0Z"/>
    </g>
    <g>
      <path class="st2" d="M405.3,626.6c-2.2,0-4.3-1.1-5.8-3l-95.6-120c-1.4-1.8-2.2-4.2-2.2-6.7v-22.2c0-3.6,1.8-7,4.5-8.7,1.1-.6,2.3-1,3.5-1,1.7,0,3.5.7,4.9,2l18,16.7c.3.4.7.6.9,1.1l98.3,125.4c2.2,2.8,2.8,6.8,1.5,10.5s-4.2,5.8-7.3,5.8h-20.7Z"/>
      <path class="st0" d="M309.7,474.7c6,5.5,12,11.2,18,16.7,32.8,41.8,65.5,83.6,98.3,125.4h-20.7c-31.9-40-63.8-80-95.6-120v-22.2M309.7,455.5c-2.4,0-4.8.6-7,1.9-5.5,3.2-8.9,9.9-9,17.2v22.1c0,4.9,1.6,9.7,4.4,13.3l95.6,120c3,3.8,7.2,5.9,11.6,5.9h20.7c6.4,0,12.2-4.6,14.7-11.7s1.3-15.3-3-20.8l-98.3-125.4c-.6-.7-1.2-1.4-1.9-2l-10.2-9.4-7.8-7.2c-2.9-2.6-6.3-4-9.8-4h0Z"/>
    </g>
  </g>
  <g id="Sceen">
    <g>
      <path class="st2" d="M75.3,418.4c-2.1,0-4.2-.9-5.7-2.4s-2.3-3.6-2.3-5.7v-10.4c.2-4.4,3.8-7.9,8.1-7.9h486.2c4.4,0,8,3.6,8,8v10.3c0,2.1-.8,4.2-2.3,5.7s-3.5,2.3-5.7,2.3H75.3Z"/>
      <path class="st0" d="M75.5,400h486.2v10.3H75.4v-10.4M75.5,384c-8.8,0-15.9,7-16,15.8v10.4c0,4.3,1.5,8.4,4.5,11.4s7.1,4.8,11.4,4.8h486.4c4.2,0,8.3-1.7,11.3-4.7s4.7-7.1,4.7-11.3v-10.3c0-8.8-7.2-16-16-16H75.5Z"/>
    </g>
    <g>
      <path class="st2" d="M44.8,390.5c-4.4,0-8-3.6-8-8v-15.6c0-2.1.8-4.2,2.3-5.7s3.5-2.3,5.7-2.3h547.1c2.1,0,4.2.9,5.7,2.4s2.3,3.6,2.3,5.7v15.8c-.2,4.4-3.8,7.9-8.1,7.9s-547-.2-547-.2h0Z"/>
      <path class="st0" d="M44.8,366.9h547.1v15.8c-182.3,0-364.7-.1-547-.2v-15.6M44.8,350.9c-4.2,0-8.3,1.7-11.3,4.7s-4.7,7.1-4.7,11.3v15.6c0,8.8,7.2,16,16,16h273.5c0,.1,273.5.2,273.5.2h0c8.8,0,15.9-7.1,16-15.8v-15.8c0-4.3-1.5-8.4-4.5-11.4s-7.1-4.7-11.4-4.7H44.7h0Z"/>
    </g>
    <g>
      <path class="st2" d="M44.5,61.1c-4.4,0-8-3.6-8-8v-15.6c0-2.1.8-4.2,2.3-5.7s3.5-2.3,5.7-2.3h547.1c2.1,0,4.2.9,5.7,2.4,1.5,1.5,2.3,3.6,2.3,5.7v15.8c-.2,4.4-3.8,7.9-8.1,7.9s-547-.2-547-.2h0Z"/>
      <path class="st0" d="M44.5,37.5h547.1v15.8c-182.3,0-364.7,0-547-.2v-15.6M44.5,21.5c-4.2,0-8.3,1.7-11.3,4.7s-4.7,7.1-4.7,11.3v15.6c0,8.8,7.2,16,16,16l547,.2h0c8.8,0,15.9-7.1,16-15.8v-15.8c0-4.3-1.5-8.4-4.5-11.4s-7.1-4.7-11.4-4.7H44.5Z"/>
    </g>
    <rect class="st1" x="65.4" y="61.2" width="506.8" height="297.7"/>
  </g>
  <g id="Decoration">
    <ellipse class="st0" cx="405.5" cy="88.9" rx="5.9" ry="6.1"/>
    <ellipse class="st0" cx="545.9" cy="200.1" rx="5.9" ry="6.1"/>
    <ellipse class="st0" cx="147" cy="88.9" rx="5.9" ry="6.1"/>
    <ellipse class="st0" cx="90.7" cy="265.7" rx="5.9" ry="6.1"/>
    <ellipse class="st0" cx="90.7" cy="245.8" rx="5.9" ry="6.1"/>
    <rect class="st0" x="367.5" y="83.5" width="18.1" height="10.8" rx="5.2" ry="5.2"/>
    <rect class="st0" x="429.9" y="83.5" width="49.7" height="10.8" rx="5.2" ry="5.2"/>
    <rect class="st0" x="540.6" y="212.6" width="10.5" height="51.4" rx="5.2" ry="5.2"/>
    <rect class="st0" x="157" y="327.6" width="49.7" height="10.8" rx="5.2" ry="5.2"/>
    <rect class="st0" x="85.7" y="144.7" width="10.5" height="22" rx="5.2" ry="5.2"/>
    <rect class="st0" x="85.7" y="176.2" width="10.5" height="22" rx="5.2" ry="5.2"/>
    <path class="st0" d="M499.3,83.9h46.1c3.1,0,5.7,2.5,5.7,5.7v5.1h-51.8c-2.9,0-5.2-2.3-5.2-5.2v-.3c0-2.9,2.3-5.2,5.2-5.2h0Z"/>
    <path class="st0" d="M540.7,142v-58.2h4.8c3.1,0,5.7,2.5,5.7,5.7v52.5c0,2.9-2.3,5.2-5.2,5.2h0c-2.9,0-5.2-2.3-5.2-5.2h0Z"/>
    <path class="st0" d="M550.8,292.4v40.6c0,3.1-2.5,5.7-5.7,5.7h-4.8v-46.3c0-2.9,2.3-5.2,5.2-5.2h0c2.9,0,5.2,2.3,5.2,5.2h0Z"/>
    <path class="st0" d="M519.8,328h31v5.1c0,3.1-2.5,5.7-5.7,5.7h-25.3c-2.9,0-5.2-2.3-5.2-5.2v-.3c0-2.9,2.3-5.2,5.2-5.2h0Z"/>
    <path class="st0" d="M144.6,338.4h-53.2c-3.1,0-5.7-2.5-5.7-5.7v-5.1h58.9c2.9,0,5.2,2.3,5.2,5.2v.3c0,2.9-2.3,5.2-5.2,5.2h0Z"/>
    <path class="st0" d="M96.1,284.7v53.3h-4.8c-3.1,0-5.7-2.5-5.7-5.7v-47.6c0-2.9,2.3-5.2,5.2-5.2h0c2.9,0,5.2,2.3,5.2,5.2h.1Z"/>
    <path class="st0" d="M85.7,129.5v-40.6c0-3.1,2.5-5.7,5.7-5.7h4.8v46.3c0,2.9-2.3,5.2-5.2,5.2h0c-2.9,0-5.2-2.3-5.2-5.2h-.1Z"/>
    <path class="st0" d="M116.8,93.9h-31v-5.1c0-3.1,2.5-5.7,5.7-5.7h25.3c2.9,0,5.2,2.3,5.2,5.2v.3c0,2.9-2.3,5.2-5.2,5.2h0Z"/>
  </g>
  <g id="demotiome">
    <path class="st0" d="M194.4,198.2l16.4-78.4h21.2c3.7,0,6.9.6,9.8,1.7,2.9,1.1,5.2,2.9,7,5.3s2.9,5.4,3.4,9,.3,7.9-.8,12.9l-5.1,24.4c-1.2,5.8-3.2,10.6-5.8,14.3s-6,6.5-10.2,8.2c-4.1,1.8-9.1,2.6-14.9,2.6h-21.2.2ZM215.9,183.7l-.8-1h4.2c1.4,0,2.7-.3,3.7-.8s1.9-1.5,2.7-3,1.4-3.5,2-6.2l5.8-27.2c.5-2.2.7-4,.6-5.5,0-1.5-.5-2.7-1.3-3.5s-2.1-1.2-3.8-1.2h-4.4l1.7-1.4-10.6,49.8h.2Z"/>
    <path class="st0" d="M255.2,198.2l16.5-78.4h35.6l-3.3,15.8h-17.1l-9.8,46.8h17.7l-3.3,15.8h-36.3ZM278.8,166l3.2-15.5h15.1l-3.2,15.5h-15.1Z"/>
    <path class="st0" d="M305.4,198.2l16.4-78.4h27.6l-3.2,29.9-1.2,8.3h.4l2.6-8.3,9.5-29.9h27l-16.6,78.4h-16.3l10.3-47.9,2.3-9.7h-.4l-3.3,9.4-17.1,48.2h-13.5l3.3-48.2.9-9.4h-.4l-1.8,9.7-10.3,47.9h-16.2,0Z"/>
    <path class="st0" d="M409,199.2c-4.3,0-8-.7-11.1-2.1-3.1-1.4-5.5-3.4-7.2-6s-2.8-5.7-3.2-9.4c-.4-3.6-.2-7.7.8-12.1l5.9-28.1c1.2-5.4,3-9.8,5.5-13.2s5.5-5.8,9-7.3,7.4-2.3,11.7-2.3,8,.7,11,2.1,5.4,3.4,7.1,6,2.8,5.7,3.2,9.4c.4,3.6.2,7.7-.8,12.1l-5.9,28.1c-1.2,5.5-3,9.8-5.5,13.2-2.5,3.3-5.5,5.8-9,7.3s-7.4,2.3-11.6,2.3h.1ZM410.1,183.8c1.2,0,2.2-.2,3-.7s1.4-1.1,1.9-2,.9-1.8,1.1-2.9l7.8-36.4c.4-1.6.4-3,.2-4.1-.3-1.1-.8-2-1.6-2.6-.8-.6-1.8-.9-3.1-.9s-2.1.2-3,.7c-.8.5-1.5,1.1-2,1.9s-.9,1.8-1.2,3l-7.8,36.4c-.4,1.6-.4,2.9-.1,4.1.3,1.1.9,2,1.7,2.6.9.6,1.9.9,3.1.9h0Z"/>
    <path class="st0" d="M213.6,300.8l13.2-62.7h-11.3l3.3-15.7h41.4l-3.3,15.7h-11.4l-13.2,62.7h-18.7Z"/>
    <path class="st0" d="M255.9,300.8l3.3-15.8h37.2l-3.3,15.8h-37.2ZM268.2,286.7l10.6-50.2h18.6l-10.6,50.2h-18.6ZM269.2,238.2l3.3-15.8h37.2l-3.3,15.8h-37.2Z"/>
    <path class="st0" d="M307.2,300.8l16.4-78.4h27.6l-3.2,29.9-1.2,8.3h.4l2.6-8.3,9.5-29.9h27l-16.6,78.4h-16.3l10.3-47.9,2.3-9.7h-.4l-3.3,9.4-17.1,48.2h-13.5l3.3-48.2.9-9.4h-.4l-1.8,9.7-10.3,47.9h-16.2,0Z"/>
    <path class="st0" d="M385,300.8l16.5-78.4h35.6l-3.3,15.8h-17.1l-9.8,46.8h17.7l-3.3,15.8h-36.3ZM408.6,268.6l3.2-15.5h15.1l-3.2,15.5h-15.1Z"/>
  </g>
</svg>