<?xml version="1.0" encoding="UTF-8"?>
<svg id="Layer_1" xmlns="http://www.w3.org/2000/svg" version="1.1" viewBox="0 0 200 200">
  <!-- Generator: Adobe Illustrator 29.2.1, SVG Export Plug-In . SVG Version: 2.1.0 Build 116)  -->
  <defs>
    <style>
      .st0 {
        fill: #c5c5c5;
      }

      .st1 {
        fill: #CB48B7;
      }
    </style>
  </defs>
  <path class="st0" d="M45.8,94.1c-4,3.5-5.5,9-4,14l4.8,15.7-18.7,18.7,35.4,35.4,18.7-18.7,15.7,4.8c5,1.5,10.5,0,14-4l13.1-15.3-63.7-63.7-15.3,13h0Z"/>
  <polygon class="st1" points="0 182.3 36.7 194.1 49.8 181.1 25.1 156.4 0 182.3"/>
  <path class="st1" d="M194,35l-23.2-23.2c-1.1-1.1-5.8-5.5-13.2-5.9-8-.4-13.3,4-14.4,5-27.4,23.4-54.8,46.7-82.2,70.1l63.7,63.7c23.4-27.4,46.8-54.7,70.2-82.1.9-1.1,5.3-6.2,5.1-14-.3-7.8-4.9-12.6-6-13.6h0Z"/>
  <path class="st0" d="M109.4,94.9c1.5,1.5,2.2,3.1,2.2,4.7s-.9,3.3-2.5,4.9l-2.6,2.6-9.1-9.1,2.9-2.9c1.5-1.5,3-2.2,4.6-2.3,1.6,0,3.1.6,4.5,2h0ZM107.4,96.9c-2-2-3.8-2.1-5.5-.3l-1,1,5.9,5.9.8-.8c1.9-1.9,1.8-3.8-.2-5.8Z"/>
  <path class="st0" d="M119,94.7c-1.1,1.1-2.3,1.7-3.5,1.7s-2.4-.5-3.6-1.7-1.8-2.4-1.8-3.6.4-2.3,1.5-3.4,2-1.5,3.1-1.5,2.2.5,3.1,1.5l.9.9-4.5,4.5c.6.5,1.1.8,1.7.8s1.2-.3,1.7-.8.8-.9,1.1-1.3c.3-.5.5-1,.8-1.6l1.5,1.5c-.2.5-.4,1-.7,1.4-.3.5-.7,1-1.3,1.5h0ZM112.9,89.2c-.4.4-.6.8-.6,1.3s.3,1,.7,1.5l2.7-2.7c-.5-.5-1-.7-1.5-.7s-.9.2-1.3.6Z"/>
  <path class="st0" d="M129.5,84l-1.9,1.9-4.1-4.1c-.5-.5-1-.8-1.4-.9-.4,0-.8,0-1.2.4-.5.5-.7,1-.5,1.6,0,.6.6,1.3,1.4,2.1l3.3,3.3-1.9,1.9-6.9-6.9,1.4-1.4,1.1.6h0c0-.6,0-1.1,0-1.7.2-.5.5-1,.9-1.5,1-1,2.1-1.4,3.1-1.1l.2-.2c0-.5,0-1,0-1.6.2-.5.5-1,1-1.5.8-.8,1.6-1.2,2.4-1.2s1.7.4,2.5,1.3l4.5,4.5-1.9,1.9-4.1-4.1c-.5-.5-1-.8-1.4-.9-.4,0-.8,0-1.2.4-.5.5-.6,1-.5,1.5,0,.6.5,1.2,1.2,1.9l3.5,3.5.4.3Z"/>
  <path class="st0" d="M138.6,67.9c1.1,1.1,1.7,2.3,1.8,3.5,0,1.2-.5,2.4-1.5,3.4s-1.4,1.1-2.2,1.3c-.8.2-1.6.2-2.4,0s-1.6-.8-2.3-1.5c-1.1-1.1-1.7-2.3-1.8-3.5,0-1.2.5-2.4,1.6-3.4.7-.7,1.4-1.1,2.2-1.3.8-.2,1.6-.2,2.4,0,.8.3,1.6.8,2.3,1.5h-.1ZM133.8,72.8c.7.7,1.3,1.1,1.9,1.2.6,0,1.1,0,1.6-.6.5-.5.7-1,.6-1.6-.1-.6-.5-1.2-1.2-1.9-.7-.7-1.3-1.1-1.9-1.2-.6,0-1.1,0-1.6.6-.5.5-.7,1-.6,1.6.1.6.5,1.2,1.2,1.9Z"/>
  <path class="st0" d="M150.6,62.9l-1.9,1.9-7.5-7.5-2.5,2.5-1.6-1.6,6.9-6.9,1.6,1.6-2.5,2.5,7.5,7.5Z"/>
  <path class="st0" d="M145.5,50.5c-.6-.6-.6-1.3.1-2s1.3-.7,2,0,.4.6.4.9-.2.7-.5,1c-.7.7-1.3.7-2,0v.2ZM156.2,57.3l-1.9,1.9-6.9-6.9,1.9-1.9,6.9,6.9Z"/>
  <path class="st0" d="M164.4,49.1l-1.9,1.9-4.1-4.1c-.5-.5-1-.8-1.4-.9-.4,0-.8,0-1.2.4-.5.5-.7,1-.5,1.6s.6,1.3,1.4,2.1l3.3,3.3-1.9,1.9-6.9-6.9,1.4-1.4,1.1.6h.1c-.1-.6-.1-1.1,0-1.7.2-.5.5-1,.9-1.5,1-1,2.1-1.4,3.1-1.1l.2-.2c-.1-.5-.1-1,0-1.6.2-.5.5-1,1-1.5.8-.8,1.6-1.2,2.4-1.2s1.7.4,2.5,1.3l4.5,4.5-1.9,1.9-4.1-4.1c-.5-.5-1-.8-1.4-.9-.4,0-.8,0-1.2.4s-.6,1-.5,1.5c.1.6.5,1.2,1.2,1.9l3.5,3.5.4.3Z"/>
  <path class="st0" d="M174,39.8c-1.1,1.1-2.3,1.7-3.5,1.7s-2.4-.5-3.6-1.7c-1.2-1.2-1.8-2.4-1.8-3.6s.4-2.3,1.5-3.4c1-1,2-1.5,3.1-1.5s2.2.5,3.1,1.5l.9.9-4.5,4.5c.6.5,1.1.8,1.7.8s1.2-.3,1.7-.8c.4-.4.8-.9,1.1-1.3.3-.5.5-1,.8-1.6l1.5,1.5c-.2.5-.4,1-.7,1.4-.3.5-.7,1-1.3,1.5h0ZM167.8,34.2c-.4.4-.6.8-.6,1.3s.3,1,.7,1.5l2.7-2.7c-.5-.5-1-.7-1.5-.7s-.9.2-1.3.6h0Z"/>
</svg>